HIERARCHY
ROOT RootJoint
{
    OFFSET   0.000000   0.000000   0.000000
    CHANNELS 6 Xposition Yposition Zposition Xrotation Yrotation Zrotation
    JOINT pelvis_lowerback
    {
        OFFSET   0.000000   0.093605   0.000000
        CHANNELS 3 Xrotation Yrotation Zrotation
        JOINT lowerback_torso
        {
            OFFSET   0.000000   0.100000   0.000000
            CHANNELS 3 Xrotation Yrotation Zrotation
            JOINT torso_head
            {
                OFFSET   0.000000   0.282350   0.000000
                CHANNELS 3 Xrotation Yrotation Zrotation
                End Site
                {
                    OFFSET   0.000000   0.192650   0.000000
                }
            }
            JOINT rTorso_Clavicle
            {
                OFFSET  -0.001000   0.157500   0.000000
                CHANNELS 3 Xrotation Yrotation Zrotation
                JOINT rShoulder
                {
                    OFFSET  -0.117647   0.000000   0.000000
                    CHANNELS 3 Xrotation Yrotation Zrotation
                    JOINT rElbow
                    {
                        OFFSET  -0.245000   0.000000   0.000000
                        CHANNELS 3 Xrotation Yrotation Zrotation
                        JOINT rWrist
                        {
                            OFFSET  -0.240000   0.000000   0.000000
                            CHANNELS 3 Xrotation Yrotation Zrotation
                            End Site
                            {
                                OFFSET  -0.116353  -0.002500   0.000000
                            }
                        }
                    }
                }
            }
            JOINT lTorso_Clavicle
            {
                OFFSET   0.001000   0.157500   0.000000
                CHANNELS 3 Xrotation Yrotation Zrotation
                JOINT lShoulder
                {
                    OFFSET   0.117647   0.000000   0.000000
                    CHANNELS 3 Xrotation Yrotation Zrotation
                    JOINT lElbow
                    {
                        OFFSET   0.245000   0.000000   0.000000
                        CHANNELS 3 Xrotation Yrotation Zrotation
                        JOINT lWrist
                        {
                            OFFSET   0.240000   0.000000   0.000000
                            CHANNELS 3 Xrotation Yrotation Zrotation
                            End Site
                            {
                                OFFSET   0.116353  -0.002500   0.000000
                            }
                        }
                    }
                }
            }
        }
    }
    JOINT rHip
    {
        OFFSET  -0.100000  -0.051395   0.000000
        CHANNELS 3 Xrotation Yrotation Zrotation
        JOINT rKnee
        {
            OFFSET   0.000000  -0.410000   0.000000
            CHANNELS 3 Xrotation Yrotation Zrotation
            JOINT rAnkle
            {
                OFFSET   0.000000  -0.390000   0.000000
                CHANNELS 3 Xrotation Yrotation Zrotation
                JOINT rToeJoint
                {
                    OFFSET   0.000000  -0.050000   0.130000
                    CHANNELS 3 Xrotation Yrotation Zrotation
                    End Site
                    {
                        OFFSET  -0.010000   0.002000   0.060000
                    }
                }
            }
        }
    }
    JOINT lHip
    {
        OFFSET   0.100000  -0.051395   0.000000
        CHANNELS 3 Xrotation Yrotation Zrotation
        JOINT lKnee
        {
            OFFSET   0.000000  -0.410000   0.000000
            CHANNELS 3 Xrotation Yrotation Zrotation
            JOINT lAnkle
            {
                OFFSET   0.000000  -0.390000   0.000000
                CHANNELS 3 Xrotation Yrotation Zrotation
                JOINT lToeJoint
                {
                    OFFSET   0.000000  -0.050000   0.130000
                    CHANNELS 3 Xrotation Yrotation Zrotation
                    End Site
                    {
                        OFFSET   0.010000   0.002000   0.060000
                    }
                }
            }
        }
    }
}
MOTION
Frames: 10
Frame Time:   0.008333
 -2.907148   0.654130   3.308570  -1.533290 -22.116750  -7.067564  48.201846  15.640088 -12.146718   5.890671  14.479428 -10.379030  -7.926620   0.218537  -0.789391 -10.309857  23.486905  -2.112357 -19.488749  30.133288  29.090356  -0.058048  67.718463   0.035508   0.495964   7.409307  -1.962645   2.699916   6.964875  -1.646630  21.357807  14.254245 -43.709628   0.007312 -29.006066   0.004291  -5.619268  -1.220174  -0.296342 -13.672327  -6.965742   5.846586 111.189636   0.058247  -0.080106 -10.126713  -0.523904  -0.133783 -17.198389   0.110181  -0.076032 -56.615124   6.420240  11.082303  96.648615   0.006492   0.009508 -41.839854   4.204375   7.326788   1.991795  -0.000481  -0.005118
 -2.911411   0.652941   3.319919  -1.246430 -21.253850  -7.049062  48.350759  15.178249 -11.972078   6.065402  14.210294 -10.219281  -7.848780   0.149324  -0.886561  -9.984377  23.130849  -1.637898 -18.028085  29.459423  28.966812  -0.085114  66.572672   0.052386   0.602759   7.770759  -2.235028   2.188446   6.284721  -2.168741  20.003816  13.853091 -43.359345   0.007019 -29.404560   0.004139  -5.515231  -1.182040  -0.016508 -15.087506  -6.317741   5.241721 113.367825   0.070247  -0.083704 -10.211162  -1.429779  -0.656129 -15.982545   0.112606  -0.072151 -56.049968   6.250847  10.879792  97.327598   0.007257   0.010672 -43.022461   3.609039   7.300163   1.513809   0.000067  -0.004084
 -2.915757   0.652305   3.331204  -1.072198 -20.278074  -7.110256  48.552239  14.646123 -11.714392   6.260813  13.859294  -9.996449  -7.773646   0.099600  -0.975005  -9.603922  22.747619  -1.164525 -16.601864  28.743118  28.867633  -0.104295  65.419295   0.063326   0.689650   7.726489  -2.433455   1.612742   5.544143  -2.666868  18.646196  13.385353 -42.999039   0.006718 -29.826615   0.004460  -5.422045  -1.363643   0.363229 -16.724651  -5.675186   4.682729 115.441439   0.080400  -0.086507 -10.306731  -2.278322  -1.152132 -14.931309   0.111664  -0.067377 -55.283729   6.017901  10.689588  97.857369   0.007568   0.011240 -44.182702   2.940469   7.249014   1.137619   0.000423  -0.003258
 -2.920199   0.651999   3.342511  -1.002354 -19.262101  -7.253916  48.765547  14.055593 -11.413838   6.471795  13.439453  -9.724436  -7.700610   0.055292  -1.053002  -9.198728  22.357696  -0.692908 -15.241298  28.039346  28.808012  -0.114813  64.318646   0.068477   0.763140   7.501566  -2.550447   1.028550   4.791327  -3.124409  17.339006  12.898373 -42.645586   0.006412 -30.244697   0.005222  -5.330044  -1.691228   0.767004 -18.500757  -5.054474   4.156697 117.377236   0.086734  -0.088347 -10.407313  -3.069114  -1.621126 -13.989257   0.108257  -0.062877 -54.346467   5.707664  10.545573  98.292745   0.007446   0.011355 -45.353141   2.226954   7.179853   0.848528   0.000690  -0.002530
 -2.924734   0.651876   3.353869  -1.016048 -18.232226  -7.467757  48.971526  13.423084 -11.086155   6.686899  12.969201  -9.417539  -7.629480   0.013312  -1.124132  -8.785788  21.965621  -0.230827 -13.953023  27.359883  28.780723  -0.118236  63.280799   0.069234   0.829522   7.206943  -2.602110   0.455507   4.047631  -3.532242  16.096304  12.411931 -42.296896   0.006111 -30.648743   0.006192  -5.236556  -2.095032   1.188339 -20.361020  -4.464274   3.657445 119.169266   0.089342  -0.089031 -10.511916  -3.805704  -2.063471 -13.142801   0.102914  -0.058737 -53.274520   5.345046  10.465668  98.661620   0.007121   0.011182 -46.549642   1.532146   7.092327   0.627503   0.000848  -0.002033
 -2.929347   0.651834   3.365303  -1.096290 -17.204545  -7.733652  49.161291  12.764444 -10.743628   6.897911  12.463443  -9.088731  -7.560425  -0.027029  -1.190889  -8.375640  21.572353   0.215844 -12.737910  26.707340  28.777400  -0.116288  62.306230   0.066848   0.891667   6.885122  -2.606616  -0.098175   3.324048  -3.889768  14.921788  11.935325 -41.952608   0.005838 -31.034564   0.007164  -5.140783  -2.536807   1.629309 -22.260347  -3.902841   3.180424 120.824365   0.088948  -0.088497 -10.619192  -4.491855  -2.480019 -12.381190   0.096235  -0.054860 -52.103039   4.945100  10.453033  98.992185   0.006725   0.010888 -47.744545   0.874154   6.992592   0.408969   0.001007  -0.001713
 -2.934033   0.651802   3.376864  -1.236118 -16.189966  -8.036467  49.331337  12.093690 -10.396287   7.101003  11.934993  -8.748881  -7.493471  -0.065850  -1.254416  -7.974127  21.178942   0.644441 -11.594366  26.082186  28.792259  -0.110513  61.392824   0.062339   0.950869   6.553858  -2.578603  -0.628699   2.627290  -4.201534  13.815613  11.473431 -41.614557   0.005617 -31.400291   0.007991  -5.042643  -2.994719   2.088420 -24.152888  -3.366895   2.726594 122.353377   0.086354  -0.086762 -10.727674  -5.131182  -2.871785 -11.694430   0.088767  -0.051132 -50.867764   4.529583  10.512507  99.326272   0.006432   0.010724 -48.860663   0.275044   6.896393   0.043759   0.001438  -0.001692
 -2.938694   0.652499   3.387999  -1.186135 -15.170282  -8.316433  49.571357  11.613429  -9.939430   7.115146  11.500469  -8.545118  -7.269419  -0.044862  -1.344519  -7.607577  20.600606   0.950443 -10.406539  25.051278  28.918270  -0.107413  60.279240   0.058576   0.907956   6.565783  -2.529915  -1.263316   1.890672  -4.456173  12.197913  10.789880 -40.886977   0.002965 -32.282140   0.006924  -4.888675  -2.741666   2.283991 -26.767372  -2.999110   2.281446 123.262700   0.077134  -0.078455 -11.119330  -5.603072  -2.893428 -10.961520   0.079298  -0.048803 -49.720820   3.963761  10.582427  99.413337   0.005323   0.009122 -49.967752  -0.324685   6.470184  -0.038348   0.001121  -0.001382
 -2.943430   0.653474   3.399154  -1.202644 -14.149341  -8.606681  49.835320  11.109497  -9.473880   7.120746  11.008602  -8.313874  -7.045787  -0.007311  -1.439207  -7.239664  20.010159   1.225560  -9.270189  24.030395  29.035320  -0.101392  59.193416   0.053242   0.851524   6.364092  -2.466611  -1.952860   1.089808  -4.624984  10.596588  10.044074 -40.138042   0.000005 -33.169002   0.006360  -4.737572  -2.804939   2.603230 -29.658546  -2.680441   1.836941 123.870095   0.066778  -0.068483 -11.503478  -6.038188  -2.917489 -10.330823   0.069639  -0.045699 -48.456195   3.404106  10.694171  99.404731   0.004222   0.007254 -51.053223  -0.881806   6.051596  -0.098226   0.000893  -0.001150
 -2.948260   0.654471   3.410498  -1.328255 -13.115319  -8.923587  50.094729  10.553256  -8.988597   7.132858  10.459304  -8.037747  -6.829062   0.029891  -1.528954  -6.880440  19.430009   1.487609  -8.198783  23.057520  29.160647  -0.092246  58.168506   0.045959   0.794672   6.078566  -2.376247  -2.639784   0.273770  -4.732232   9.067435   9.287499 -39.402555  -0.002558 -34.020907   0.006405  -4.582219  -3.037108   3.005942 -32.631351  -2.385554   1.410085 124.316907   0.057058  -0.058728 -11.871510  -6.442506  -2.943642  -9.771978   0.060647  -0.042148 -47.035503   2.844815  10.856459  99.350149   0.003243   0.005461 -52.160800  -1.396602   5.636809  -0.139545   0.000722  -0.000968
